<svg width="57" height="17" viewBox="0 0 57 17" fill="none" xmlns="http://www.w3.org/2000/svg">
<path d="M4.928 16C4.78133 16 4.686 15.9266 4.642 15.78L0.022 0.907949L0 0.819949C0 0.673283 0.0806667 0.599949 0.242 0.599949H2.42C2.58133 0.599949 2.684 0.673283 2.728 0.819949L6.028 12.304C6.04267 12.348 6.06467 12.37 6.094 12.37C6.12333 12.37 6.14533 12.348 6.16 12.304L9.438 0.819949C9.482 0.673283 9.58467 0.599949 9.746 0.599949H11.88C11.968 0.599949 12.034 0.629283 12.078 0.687949C12.122 0.746616 12.1293 0.819949 12.1 0.907949L7.414 15.78C7.37 15.9266 7.27467 16 7.128 16H4.928Z" fill="black"/>
<path d="M18.9432 16.22C17.8432 16.22 16.8679 15.9999 16.0172 15.5599C15.1665 15.1053 14.5065 14.4673 14.0372 13.646C13.5825 12.8246 13.3552 11.8786 13.3552 10.808V5.79195C13.3552 4.73595 13.5899 3.80462 14.0592 2.99795C14.5285 2.17662 15.1812 1.54595 16.0172 1.10595C16.8679 0.651283 17.8432 0.42395 18.9432 0.42395C20.0579 0.42395 21.0332 0.651283 21.8692 1.10595C22.7199 1.54595 23.3799 2.17662 23.8492 2.99795C24.3185 3.80462 24.5532 4.73595 24.5532 5.79195V10.808C24.5532 11.8786 24.3185 12.8246 23.8492 13.646C23.3799 14.4673 22.7199 15.1053 21.8692 15.5599C21.0332 15.9999 20.0579 16.22 18.9432 16.22ZM18.9432 14.0199C19.8672 14.0199 20.6079 13.734 21.1652 13.162C21.7225 12.59 22.0012 11.8346 22.0012 10.896V5.76995C22.0012 4.81662 21.7225 4.05395 21.1652 3.48195C20.6079 2.90995 19.8672 2.62395 18.9432 2.62395C18.0339 2.62395 17.3005 2.90995 16.7432 3.48195C16.1859 4.05395 15.9072 4.81662 15.9072 5.76995V10.896C15.9072 11.8346 16.1859 12.59 16.7432 13.162C17.3005 13.734 18.0339 14.0199 18.9432 14.0199Z" fill="black"/>
<path d="M37.3414 0.599949C37.4147 0.599949 37.4734 0.629283 37.5174 0.687949C37.5761 0.73195 37.6054 0.790617 37.6054 0.86395V2.55795C37.6054 2.63128 37.5761 2.69728 37.5174 2.75595C37.4734 2.79995 37.4147 2.82195 37.3414 2.82195H33.2934C33.2201 2.82195 33.1834 2.85862 33.1834 2.93195V15.736C33.1834 15.8093 33.1541 15.8753 33.0954 15.934C33.0514 15.978 32.9927 16 32.9194 16H30.8954C30.8221 16 30.7561 15.978 30.6974 15.934C30.6534 15.8753 30.6314 15.8093 30.6314 15.736V2.93195C30.6314 2.85862 30.5947 2.82195 30.5214 2.82195H26.6274C26.5541 2.82195 26.4881 2.79995 26.4294 2.75595C26.3854 2.69728 26.3634 2.63128 26.3634 2.55795V0.86395C26.3634 0.790617 26.3854 0.73195 26.4294 0.687949C26.4881 0.629283 26.5541 0.599949 26.6274 0.599949H37.3414Z" fill="black"/>
<path d="M50.3896 2.53595C50.3896 2.60928 50.3603 2.67528 50.3016 2.73395C50.2576 2.77795 50.199 2.79995 50.1256 2.79995H42.6236C42.5503 2.79995 42.5136 2.83662 42.5136 2.90995V7.02395C42.5136 7.09728 42.5503 7.13395 42.6236 7.13395H47.6616C47.735 7.13395 47.7936 7.16328 47.8376 7.22195C47.8963 7.26595 47.9256 7.32462 47.9256 7.39795V9.06995C47.9256 9.14328 47.8963 9.20928 47.8376 9.26795C47.7936 9.31195 47.735 9.33395 47.6616 9.33395H42.6236C42.5503 9.33395 42.5136 9.37062 42.5136 9.44395V13.6899C42.5136 13.7633 42.5503 13.8 42.6236 13.8H50.1256C50.199 13.8 50.2576 13.8293 50.3016 13.8879C50.3603 13.9319 50.3896 13.9906 50.3896 14.064V15.736C50.3896 15.8093 50.3603 15.8753 50.3016 15.934C50.2576 15.978 50.199 16 50.1256 16H40.2256C40.1523 16 40.0863 15.978 40.0276 15.934C39.9836 15.8753 39.9616 15.8093 39.9616 15.736V0.86395C39.9616 0.790617 39.9836 0.73195 40.0276 0.687949C40.0863 0.629283 40.1523 0.599949 40.2256 0.599949H50.1256C50.199 0.599949 50.2576 0.629283 50.3016 0.687949C50.3603 0.73195 50.3896 0.790617 50.3896 0.86395V2.53595Z" fill="black"/>
<path d="M54.3232 10.808C54.2498 10.808 54.1838 10.7859 54.1252 10.742C54.0812 10.6833 54.0592 10.6173 54.0592 10.544L53.8172 0.86395C53.8172 0.790617 53.8392 0.73195 53.8832 0.687949C53.9418 0.629283 54.0078 0.599949 54.0812 0.599949H56.1052C56.1785 0.599949 56.2372 0.629283 56.2812 0.687949C56.3398 0.73195 56.3692 0.790617 56.3692 0.86395L56.1272 10.544C56.1272 10.6173 56.0978 10.6833 56.0392 10.742C55.9952 10.7859 55.9365 10.808 55.8632 10.808H54.3232ZM54.9612 15.956C54.5065 15.956 54.1325 15.8093 53.8392 15.516C53.5605 15.2226 53.4212 14.8486 53.4212 14.394C53.4212 13.9393 53.5605 13.5726 53.8392 13.294C54.1325 13.0006 54.5065 12.854 54.9612 12.854C55.4158 12.854 55.7898 13.0006 56.0832 13.294C56.3765 13.5726 56.5232 13.9393 56.5232 14.394C56.5232 14.8486 56.3765 15.2226 56.0832 15.516C55.7898 15.8093 55.4158 15.956 54.9612 15.956Z" fill="black"/>
</svg>
