<svg width="45" height="73" viewBox="0 0 45 73" fill="none" xmlns="http://www.w3.org/2000/svg">
<path d="M12.3671 1.48204C13.6867 0.724529 15.315 0.728597 16.6384 1.49267L26.9085 7.42208C28.2319 8.18616 29.0495 9.59423 29.0533 11.1158L29.0826 22.9237C29.0864 24.4453 28.2759 25.8493 26.9563 26.6068L16.7157 32.4852C15.396 33.2428 13.7678 33.2387 12.4444 32.4746L2.17429 26.5452C0.850874 25.7811 0.0332841 24.3731 0.0294931 22.8515L1.32387e-05 11.0437C-0.00377778 9.52211 0.806862 8.11801 2.12651 7.36049L12.3671 1.48204ZM16.739 10.6299C16.247 10.1539 15.4715 10.1517 14.9768 10.6138L14.9298 10.6599L14.8525 10.7405C11.6064 14.1508 11.5752 17.6868 12.4238 20.3351C12.8401 21.6346 13.4591 22.7049 13.9664 23.445C14.2216 23.8174 14.4529 24.1126 14.6239 24.3184C14.7095 24.4215 14.7805 24.5026 14.8321 24.5602C14.858 24.589 14.8791 24.612 14.8948 24.629C14.9107 24.6462 14.9186 24.6545 14.9256 24.6618C15.4145 25.172 16.2245 25.1892 16.7347 24.7004C17.244 24.2123 17.2621 23.4045 16.7759 22.8941C16.7759 22.8941 16.7737 22.8916 16.7707 22.8884C16.7645 22.8817 16.7532 22.8695 16.7374 22.8519C16.7057 22.8166 16.656 22.7597 16.5922 22.6829C16.4643 22.529 16.2818 22.2968 16.0772 21.9983C15.6648 21.3966 15.1801 20.551 14.8607 19.5543C14.2541 17.6612 14.2075 15.1678 16.6508 12.5632L16.769 12.4391L16.8136 12.3906C17.259 11.8809 17.231 11.1059 16.739 10.6299ZM23.1569 10.3903C22.4797 10.2898 21.8167 10.7338 21.6443 11.3905L21.6292 11.4547L19.1086 23.496C18.9638 24.1876 19.413 24.8325 20.112 24.9363C20.811 25.0401 21.495 24.5635 21.6398 23.8719L24.1603 11.8307L24.1722 11.7659C24.2768 11.0992 23.834 10.4909 23.1569 10.3903ZM7.43859 11.3902C7.26618 10.7336 6.60315 10.2896 5.92602 10.3901C5.24889 10.4907 4.80605 11.099 4.91066 11.7657L4.9225 11.8304L7.44309 23.8716C7.58787 24.5633 8.27182 25.0398 8.97078 24.936C9.66976 24.8322 10.1191 24.1873 9.9743 23.4956L7.45372 11.4545L7.43859 11.3902Z" fill="black"/>
<path fill-rule="evenodd" clip-rule="evenodd" d="M38.9201 63.1465C39.2942 63.2068 39.692 63.232 40.1203 63.232C40.3005 63.232 40.4784 63.227 40.6536 63.2172C40.6459 63.4272 40.6424 63.6469 40.6424 63.8947V70.9931C40.6424 71.7877 40.6693 72.2188 40.7366 72.8114H38.9453V72.1514C38.9453 71.9898 38.9453 71.8416 38.9587 71.6665C38.2583 72.6498 37.5444 73 36.2379 73C35.295 73 34.5812 72.7845 33.9885 72.313C33.0861 71.6126 32.5876 70.3869 32.5876 68.9322C32.5877 66.4673 34.002 64.9048 36.2244 64.9048C37.0595 64.9048 37.7465 65.107 38.2718 65.5245C38.5142 65.7131 38.6624 65.8747 38.9587 66.2653C38.9587 66.1037 38.9587 66.1036 38.9453 65.8342C38.9318 65.7399 38.9318 65.484 38.9318 65.2551V63.9082C38.9318 63.6139 38.9278 63.3678 38.9201 63.1465ZM36.4803 66.3192C35.1738 66.3192 34.3387 67.3428 34.3387 68.9457C34.3387 70.5485 35.2008 71.5588 36.5477 71.5588C37.2616 71.5588 37.9485 71.222 38.3526 70.6697C38.6893 70.2253 38.8778 69.5653 38.8779 68.8649C38.8778 68.2049 38.6219 67.5044 38.2313 67.0734C37.8138 66.6155 37.1268 66.3192 36.4803 66.3192Z" fill="black"/>
<path fill-rule="evenodd" clip-rule="evenodd" d="M4.2563 64.851C5.54934 64.851 6.33057 65.08 6.90975 65.6457C7.3677 66.0767 7.5429 66.5886 7.54291 67.5045V71.1278C7.54291 71.8416 7.56982 72.2054 7.65064 72.8115H5.83219V71.9359C5.29342 72.4478 4.95672 72.6364 4.40448 72.7845C4.01387 72.8923 3.5828 72.9462 3.15178 72.9462C1.50855 72.9462 0.511835 72.0976 0.511813 70.6834C0.511813 69.7405 1.10451 68.8919 2.0339 68.5013C2.9094 68.1376 3.90612 68.0029 5.83219 67.9625V67.2755C5.83219 66.4943 5.30694 66.0902 4.28327 66.0902C3.74449 66.0902 3.19219 66.2384 2.88239 66.4809C2.6265 66.6694 2.50523 66.858 2.34361 67.3428L0.619542 67.0331C0.929333 66.2519 1.1718 65.9017 1.68362 65.538C2.34362 65.0531 3.09794 64.851 4.2563 64.851ZM5.83219 69.1343C3.25957 69.1882 2.24936 69.6327 2.24936 70.6834C2.24939 71.3164 2.72083 71.707 3.4751 71.707C4.18898 71.707 4.88938 71.4375 5.34734 70.9931C5.6706 70.6698 5.83219 70.2792 5.83219 69.8078V69.1343Z" fill="black"/>
<path fill-rule="evenodd" clip-rule="evenodd" d="M22.6206 64.851C23.9137 64.851 24.6949 65.08 25.2741 65.6457C25.732 66.0767 25.9072 66.5886 25.9072 67.5045V71.1278C25.9072 71.8416 25.9342 72.2054 26.015 72.8115H24.1965V71.9359C23.6578 72.4478 23.3211 72.6364 22.7688 72.7845C22.3782 72.8923 21.9471 72.9462 21.5161 72.9462C19.8729 72.9462 18.8762 72.0976 18.8761 70.6834C18.8761 69.7405 19.4688 68.8919 20.3982 68.5013C21.2737 68.1376 22.2705 68.0029 24.1965 67.9625V67.2755C24.1965 66.4943 23.6713 66.0902 22.6476 66.0902C22.1088 66.0902 21.5565 66.2384 21.2467 66.4809C20.9908 66.6694 20.8696 66.858 20.7079 67.3428L18.9839 67.0331C19.2937 66.2519 19.5361 65.9017 20.048 65.538C20.708 65.0531 21.4623 64.851 22.6206 64.851ZM24.1965 69.1343C21.6239 69.1882 20.6137 69.6327 20.6137 70.6834C20.6137 71.3164 21.0852 71.707 21.8394 71.707C22.5533 71.707 23.2537 71.4375 23.7117 70.9931C24.0349 70.6698 24.1965 70.2792 24.1965 69.8078V69.1343Z" fill="black"/>
<path d="M9.45277 65.08C9.47971 65.4706 9.60096 66.1575 9.74913 66.6828L10.4899 69.3094C10.5438 69.4846 10.6247 69.8617 10.7324 70.387C10.7594 70.2523 10.9882 69.4577 11.0421 69.296L12.012 66.3595C12.1467 65.9689 12.3084 65.3493 12.3488 65.08H13.79C13.8304 65.3359 14.0054 65.9689 14.1266 66.3595L15.1234 69.4172C15.1638 69.5384 15.2312 69.7943 15.3121 70.0772C15.3525 70.2522 15.3659 70.2658 15.3928 70.387C15.4198 70.2792 15.4198 70.2792 15.4602 70.0906C15.5006 69.9021 15.5948 69.471 15.6218 69.3767L16.3761 66.6828C16.5378 66.1036 16.6456 65.511 16.6725 65.08H18.6525C18.4774 65.5245 18.4504 65.6323 18.1002 66.7502L16.6051 71.5318C16.403 72.1784 16.3358 72.4344 16.2684 72.8115H14.7059C14.652 72.4882 14.5308 72.0571 14.3692 71.5318L13.332 68.3531C13.305 68.2992 13.2242 68.0028 13.076 67.4505C13.0087 67.693 12.8471 68.2451 12.8067 68.3799L11.7695 71.5318C11.6214 71.9898 11.4733 72.5286 11.4194 72.8115H9.85685C9.77604 72.4209 9.72221 72.2188 9.5067 71.5318L8.02506 66.7502C7.83649 66.1306 7.64789 65.5783 7.45931 65.08H9.45277Z" fill="black"/>
<path d="M31.4672 64.9319C31.7905 64.9319 32.1137 64.9722 32.7198 65.08L32.2484 66.7772C31.6827 66.6156 31.3998 66.5616 31.0496 66.5616C30.3762 66.5616 29.8642 66.7771 29.4871 67.2216C29.1504 67.6122 29.0157 67.9221 28.9348 68.5686V71.0605C28.9348 71.7878 28.9619 72.1784 29.0292 72.8115H27.103C27.1704 72.1515 27.1973 71.7609 27.1973 71.0605V66.831C27.1973 66.0094 27.1839 65.6322 27.103 65.08H28.9348V66.3462C29.4197 65.3898 30.255 64.9319 31.4672 64.9319Z" fill="black"/>
<path fill-rule="evenodd" clip-rule="evenodd" d="M40.1698 51.9806C41.3686 51.9806 42.1633 52.3443 42.7425 53.1659C42.7155 52.8966 42.7155 52.8696 42.7155 52.7215V52.1018H44.5205C44.4531 52.681 44.4262 53.0582 44.4262 53.7856V58.2978C44.4262 59.9141 44.0759 60.9512 43.2947 61.6112C42.6213 62.1635 41.5033 62.4733 40.116 62.4733C38.5401 62.4733 37.6511 62.1096 36.7351 61.0724L38.0821 60.1431C38.6074 60.8704 39.2 61.1668 40.1698 61.1668C41.2069 61.1668 42.0017 60.8031 42.3788 60.1565C42.6078 59.7525 42.702 59.281 42.729 58.3652C42.0555 59.2137 41.2608 59.5908 40.089 59.5908C37.9474 59.5908 36.5735 58.1226 36.5735 55.8193C36.5735 53.4892 37.9878 51.9806 40.1698 51.9806ZM40.5201 53.2468C39.1731 53.2468 38.338 54.2569 38.338 55.8598C38.338 56.6545 38.5535 57.3145 38.9575 57.7185C39.2943 58.0822 39.8735 58.3247 40.3854 58.3247C41.1262 58.3247 41.8805 57.8937 42.2576 57.2607C42.5135 56.8431 42.6347 56.3447 42.6347 55.7251C42.6347 54.8631 42.3653 54.1896 41.8266 53.7316C41.4494 53.4218 41.005 53.2468 40.5201 53.2468Z" fill="black"/>
<path d="M4.24282 51.8594C5.56282 51.8594 6.6135 52.3712 7.26004 53.3141C7.43514 53.5835 7.54283 53.799 7.7314 54.2974L6.08823 54.688C5.94007 54.2704 5.84576 54.0818 5.67066 53.8663C5.3474 53.4622 4.87592 53.2468 4.28327 53.2468C2.96327 53.2468 2.14163 54.284 2.14163 55.9542C2.14165 57.6378 2.9768 58.6749 4.3372 58.6749C5.01064 58.6749 5.54939 58.4055 5.88612 57.9207C6.00735 57.7321 6.0747 57.5839 6.15551 57.2472L7.82578 57.5838C7.63721 58.1226 7.50249 58.4056 7.26004 58.7288C6.6135 59.6178 5.57635 60.0893 4.29675 60.0893C1.92613 60.0893 0.390601 58.4863 0.390601 55.9945C0.390609 54.7284 0.79463 53.6373 1.53544 52.883C2.19543 52.2096 3.13834 51.8594 4.24282 51.8594Z" fill="black"/>
<path fill-rule="evenodd" clip-rule="evenodd" d="M12.0148 51.8729C14.4528 51.8729 16.0018 53.4623 16.0018 55.9542C16.0018 58.446 14.4258 60.0893 12.0283 60.0893C9.56338 60.0892 8.00092 58.4998 8.00092 55.981C8.00095 53.4757 9.56339 51.8729 12.0148 51.8729ZM12.0148 53.2738C10.6005 53.2738 9.7385 54.2974 9.73847 55.981C9.73847 57.6377 10.6005 58.6615 12.0013 58.6615C13.4021 58.6615 14.2642 57.6512 14.2642 56.008C14.2642 54.2704 13.4426 53.2738 12.0148 53.2738Z" fill="black"/>
<path fill-rule="evenodd" clip-rule="evenodd" d="M24.5134 49.1117C24.446 49.7582 24.4191 50.2296 24.4191 50.9165V58.0149C24.4191 58.8096 24.446 59.2407 24.5134 59.8333H22.722V59.1734C22.722 59.0117 22.722 58.8635 22.7355 58.6884C22.0351 59.6716 21.3212 60.0218 20.0146 60.0218C19.0718 60.0218 18.3579 59.8064 17.7653 59.335C16.8628 58.6346 16.3644 57.4088 16.3644 55.9542C16.3644 53.4893 17.7787 51.9268 20.0012 51.9268C20.8363 51.9268 21.5232 52.1288 22.0486 52.5463C22.291 52.7349 22.4392 52.8965 22.7355 53.2871C22.7355 53.1255 22.7355 53.1255 22.722 52.8562C22.7086 52.7619 22.7085 52.5059 22.7085 52.277V50.93C22.7085 50.1219 22.6816 49.6774 22.6143 49.1117H24.5134ZM20.2571 53.341C18.9505 53.341 18.1154 54.3648 18.1154 55.9676C18.1155 57.5705 18.9776 58.5806 20.3245 58.5806C21.0383 58.5806 21.7252 58.2439 22.1293 57.6917C22.4661 57.2472 22.6546 56.5872 22.6546 55.8867C22.6546 55.2268 22.3987 54.5263 22.0081 54.0953C21.5905 53.6373 20.9036 53.341 20.2571 53.341Z" fill="black"/>
<path d="M27.6252 52.1018C27.5579 52.6002 27.531 53.0447 27.531 53.8663V58.0688C27.531 58.8096 27.5579 59.2676 27.6252 59.8333H25.6588C25.7396 59.2272 25.7665 58.7558 25.7665 58.0823V53.8528C25.7665 53.112 25.7396 52.654 25.6588 52.1018H27.6252Z" fill="black"/>
<path d="M33.3293 51.9671C34.3665 51.9671 35.1343 52.3039 35.6192 52.9639C35.9424 53.4084 36.0772 53.9472 36.0772 54.8496V58.0823C36.0772 58.8231 36.1041 59.335 36.1849 59.8333H34.2318C34.2991 59.2272 34.3261 58.7692 34.3261 58.0823V55.0921C34.3261 54.5264 34.2587 54.1627 34.0971 53.9068C33.8816 53.5566 33.4775 53.3545 32.9657 53.3545C31.9959 53.3545 31.2011 54.028 30.6085 55.3615V58.0823C30.6085 58.7423 30.6355 59.2542 30.7163 59.8333H28.7767C28.8575 59.2542 28.8844 58.8366 28.8844 58.0823V53.8528C28.8844 53.112 28.8575 52.6541 28.7767 52.1018H30.6085V52.8157C30.6085 53.0177 30.6086 53.0582 30.5816 53.3948C31.4033 52.3443 32.1171 51.9671 33.3293 51.9671Z" fill="black"/>
<path d="M27.6387 50.8223H25.6588V49.1117H27.6387V50.8223Z" fill="black"/>
<path fill-rule="evenodd" clip-rule="evenodd" d="M24.1054 38.8812C25.6813 38.8812 26.9205 39.6624 27.4593 41.0094C27.7152 41.6559 27.8095 42.1408 27.8499 43.0568C27.8499 43.0837 27.8499 43.1241 27.8768 43.4339H22.0175C22.0849 44.1747 22.2062 44.5519 22.516 44.9425C22.9066 45.4274 23.5127 45.6967 24.1996 45.6967C24.8596 45.6967 25.4253 45.4543 25.816 45.0233C25.9776 44.8347 26.0719 44.6866 26.2066 44.323L27.7959 44.8348C27.4862 45.4813 27.311 45.7373 26.9743 46.074C26.2739 46.7609 25.331 47.1111 24.1996 47.1111C21.8155 47.1111 20.307 45.5216 20.307 43.0028C20.307 40.511 21.8021 38.8812 24.1054 38.8812ZM24.0784 40.2686C23.0278 40.2686 22.26 40.969 22.058 42.1004H26.1258C26.0315 41.5078 25.8698 41.1441 25.5331 40.8074C25.1694 40.4437 24.7115 40.2686 24.0784 40.2686Z" fill="black"/>
<path fill-rule="evenodd" clip-rule="evenodd" d="M13.5581 36.1334C13.4907 36.6991 13.4638 37.1437 13.4638 37.9518V39.2988C13.4638 39.5143 13.4503 39.851 13.4369 40.3089C14.1373 39.3661 14.9724 38.9486 16.2115 38.9486C18.4744 38.9486 19.8078 40.4168 19.8078 42.9221C19.8078 44.2421 19.4308 45.3197 18.7034 46.074C18.0704 46.7205 17.2083 47.0437 16.1173 47.0437C14.8781 47.0437 14.1103 46.6531 13.4369 45.7102C13.4503 45.8853 13.4503 46.0336 13.4503 46.1952V46.8552H11.6589C11.7262 46.2625 11.7531 45.8314 11.7531 45.0367V37.9384C11.7531 37.2514 11.7262 36.7799 11.6589 36.1334H13.5581ZM16.0095 40.3629C15.2552 40.3629 14.6221 40.6189 14.1776 41.1038C13.7735 41.5483 13.5176 42.2756 13.5176 42.976C13.5176 43.8246 13.8679 44.6731 14.4067 45.1042C14.7973 45.4139 15.3226 45.6025 15.8209 45.6025C17.1813 45.6025 18.0568 44.5519 18.0568 42.9221C18.0568 41.3731 17.2487 40.3629 16.0095 40.3629Z" fill="black"/>
<path d="M2.06087 39.1238C2.10129 39.4201 2.22246 39.878 2.39754 40.3764L3.77145 44.2825C3.85227 44.498 3.97351 44.9021 4.05433 45.1849C4.14861 44.8886 4.2564 44.5519 4.35068 44.2825L5.72446 40.3764C5.93996 39.7433 6.00739 39.5009 6.06127 39.1238H8.10865C7.92009 39.5009 7.75837 39.878 7.50246 40.538L5.42824 45.6564C5.15885 46.3434 5.11844 46.4646 5.02416 46.8552H3.09798C3.01716 46.4915 2.96328 46.3299 2.6939 45.6564L0.633025 40.538C0.484866 40.1878 0.269374 39.6895 0 39.1238H2.06087Z" fill="black"/>
<path d="M10.5074 39.1236C10.4401 39.622 10.4132 40.0665 10.4132 40.8882V45.0907C10.4132 45.8315 10.4401 46.2895 10.5074 46.8552H8.54092C8.62173 46.2491 8.64865 45.7776 8.64865 45.1042V40.8747C8.64865 40.1339 8.62173 39.6759 8.54092 39.1236H10.5074Z" fill="black"/>
<path d="M10.5209 37.8441H8.54092V36.1334H10.5209V37.8441Z" fill="black"/>
</svg>
