<svg width="59" height="13" viewBox="0 0 59 13" fill="none" xmlns="http://www.w3.org/2000/svg">
<path d="M6.512 0.992007C6.512 0.938674 6.528 0.896007 6.56 0.864007C6.60267 0.82134 6.65067 0.800007 6.704 0.800007H8.176C8.22933 0.800007 8.272 0.82134 8.304 0.864007C8.34667 0.896007 8.368 0.938674 8.368 0.992007V11.808C8.368 11.8613 8.34667 11.9093 8.304 11.952C8.272 11.984 8.22933 12 8.176 12H6.752C6.64533 12 6.57067 11.9573 6.528 11.872L1.92 4.32001C1.89867 4.28801 1.87733 4.27734 1.856 4.28801C1.83467 4.28801 1.824 4.30934 1.824 4.35201L1.856 11.808C1.856 11.8613 1.83467 11.9093 1.792 11.952C1.76 11.984 1.71733 12 1.664 12H0.192C0.138667 12 0.0906667 11.984 0.048 11.952C0.016 11.9093 0 11.8613 0 11.808V0.992007C0 0.938674 0.016 0.896007 0.048 0.864007C0.0906667 0.82134 0.138667 0.800007 0.192 0.800007H1.616C1.72267 0.800007 1.79733 0.842674 1.84 0.928007L6.432 8.48001C6.45333 8.51201 6.47467 8.52801 6.496 8.52801C6.51733 8.51734 6.528 8.49067 6.528 8.44801L6.512 0.992007Z" fill="black"/>
<path d="M13.5191 12.128C12.6765 12.128 11.9511 11.9147 11.3431 11.488C10.7458 11.0613 10.3245 10.4693 10.0791 9.71201C9.89779 9.13601 9.80713 8.52801 9.80713 7.88801C9.80713 7.20534 9.89246 6.59734 10.0631 6.06401C10.3085 5.31734 10.7351 4.73601 11.3431 4.32001C11.9511 3.90401 12.6818 3.69601 13.5351 3.69601C14.3458 3.69601 15.0445 3.90401 15.6311 4.32001C16.2285 4.73601 16.6498 5.31201 16.8951 6.04801C17.0871 6.56001 17.1831 7.16801 17.1831 7.87201C17.1831 8.54401 17.0925 9.15201 16.9111 9.69601C16.6658 10.4533 16.2445 11.0507 15.6471 11.488C15.0498 11.9147 14.3405 12.128 13.5191 12.128ZM13.5191 10.528C13.9138 10.528 14.2498 10.416 14.5271 10.192C14.8151 9.96801 15.0231 9.65334 15.1511 9.24801C15.2578 8.89601 15.3111 8.44801 15.3111 7.90401C15.3111 7.32801 15.2578 6.88001 15.1511 6.56001C15.0338 6.15467 14.8311 5.84534 14.5431 5.63201C14.2551 5.40801 13.9031 5.29601 13.4871 5.29601C13.0925 5.29601 12.7511 5.40801 12.4631 5.63201C12.1751 5.84534 11.9671 6.15467 11.8391 6.56001C11.7325 6.93334 11.6791 7.38134 11.6791 7.90401C11.6791 8.42667 11.7325 8.87467 11.8391 9.24801C11.9565 9.65334 12.1591 9.96801 12.4471 10.192C12.7458 10.416 13.1031 10.528 13.5191 10.528Z" fill="black"/>
<path d="M27.2098 3.69601C28.0311 3.69601 28.6711 3.94667 29.1298 4.44801C29.5991 4.93867 29.8338 5.62667 29.8338 6.51201V11.808C29.8338 11.8613 29.8124 11.9093 29.7698 11.952C29.7378 11.984 29.6951 12 29.6418 12H28.1858C28.1324 12 28.0844 11.984 28.0418 11.952C28.0098 11.9093 27.9938 11.8613 27.9938 11.808V6.89601C27.9938 6.40534 27.8604 6.01601 27.5938 5.72801C27.3378 5.44001 26.9911 5.29601 26.5538 5.29601C26.1164 5.29601 25.7591 5.44001 25.4818 5.72801C25.2044 6.01601 25.0658 6.40001 25.0658 6.88001V11.808C25.0658 11.8613 25.0444 11.9093 25.0018 11.952C24.9698 11.984 24.9271 12 24.8738 12H23.4178C23.3644 12 23.3164 11.984 23.2738 11.952C23.2418 11.9093 23.2258 11.8613 23.2258 11.808V6.89601C23.2258 6.40534 23.0924 6.01601 22.8258 5.72801C22.5591 5.44001 22.2071 5.29601 21.7698 5.29601C21.3644 5.29601 21.0284 5.41334 20.7618 5.64801C20.5058 5.88267 20.3564 6.20267 20.3138 6.60801V11.808C20.3138 11.8613 20.2924 11.9093 20.2498 11.952C20.2178 11.984 20.1751 12 20.1218 12H18.6498C18.5964 12 18.5484 11.984 18.5058 11.952C18.4738 11.9093 18.4578 11.8613 18.4578 11.808V4.01601C18.4578 3.96267 18.4738 3.92001 18.5058 3.88801C18.5484 3.84534 18.5964 3.82401 18.6498 3.82401H20.1218C20.1751 3.82401 20.2178 3.84534 20.2498 3.88801C20.2924 3.92001 20.3138 3.96267 20.3138 4.01601V4.54401C20.3138 4.57601 20.3244 4.59734 20.3458 4.60801C20.3671 4.61867 20.3884 4.60801 20.4098 4.57601C20.6444 4.27734 20.9324 4.05867 21.2738 3.92001C21.6258 3.77067 22.0151 3.69601 22.4418 3.69601C22.9644 3.69601 23.4231 3.80267 23.8178 4.01601C24.2124 4.22934 24.5164 4.53867 24.7298 4.94401C24.7618 4.98667 24.7991 4.98667 24.8418 4.94401C25.0764 4.51734 25.4018 4.20267 25.8178 4.00001C26.2338 3.79734 26.6978 3.69601 27.2098 3.69601Z" fill="black"/>
<path d="M32.2994 2.70401C31.9687 2.70401 31.6967 2.59734 31.4834 2.38401C31.27 2.17067 31.1634 1.89867 31.1634 1.56801C31.1634 1.23734 31.27 0.965341 31.4834 0.752007C31.6967 0.538674 31.9687 0.432007 32.2994 0.432007C32.63 0.432007 32.902 0.538674 33.1154 0.752007C33.3287 0.965341 33.4354 1.23734 33.4354 1.56801C33.4354 1.89867 33.3287 2.17067 33.1154 2.38401C32.902 2.59734 32.63 2.70401 32.2994 2.70401ZM31.5314 12C31.478 12 31.43 11.984 31.3874 11.952C31.3554 11.9093 31.3394 11.8613 31.3394 11.808V4.00001C31.3394 3.94667 31.3554 3.90401 31.3874 3.87201C31.43 3.82934 31.478 3.80801 31.5314 3.80801H33.0034C33.0567 3.80801 33.0994 3.82934 33.1314 3.87201C33.174 3.90401 33.1954 3.94667 33.1954 4.00001V11.808C33.1954 11.8613 33.174 11.9093 33.1314 11.952C33.0994 11.984 33.0567 12 33.0034 12H31.5314Z" fill="black"/>
<path d="M38.7615 3.69601C39.6255 3.69601 40.3135 3.95201 40.8255 4.46401C41.3482 4.97601 41.6095 5.67467 41.6095 6.56001V11.808C41.6095 11.8613 41.5882 11.9093 41.5455 11.952C41.5135 11.984 41.4708 12 41.4175 12H39.9455C39.8922 12 39.8442 11.984 39.8015 11.952C39.7695 11.9093 39.7535 11.8613 39.7535 11.808V6.94401C39.7535 6.45334 39.6148 6.05867 39.3375 5.76001C39.0602 5.45067 38.6922 5.29601 38.2335 5.29601C37.7748 5.29601 37.4015 5.44534 37.1135 5.74401C36.8362 6.04267 36.6975 6.43734 36.6975 6.92801V11.808C36.6975 11.8613 36.6762 11.9093 36.6335 11.952C36.6015 11.984 36.5588 12 36.5055 12H35.0335C34.9802 12 34.9322 11.984 34.8895 11.952C34.8575 11.9093 34.8415 11.8613 34.8415 11.808V4.01601C34.8415 3.96267 34.8575 3.92001 34.8895 3.88801C34.9322 3.84534 34.9802 3.82401 35.0335 3.82401H36.5055C36.5588 3.82401 36.6015 3.84534 36.6335 3.88801C36.6762 3.92001 36.6975 3.96267 36.6975 4.01601V4.52801C36.6975 4.56001 36.7082 4.58134 36.7295 4.59201C36.7508 4.60267 36.7668 4.59201 36.7775 4.56001C37.2148 3.98401 37.8762 3.69601 38.7615 3.69601Z" fill="black"/>
<path d="M49.8981 6.99201C49.9408 7.25867 49.9621 7.55734 49.9621 7.88801L49.9461 8.38401C49.9461 8.51201 49.8821 8.57601 49.7541 8.57601H44.7461C44.6928 8.57601 44.6661 8.60267 44.6661 8.65601C44.6981 9.00801 44.7461 9.24801 44.8101 9.37601C45.0661 10.144 45.6901 10.5333 46.6821 10.544C47.4075 10.544 47.9835 10.2453 48.4101 9.64801C48.4528 9.58401 48.5061 9.55201 48.5701 9.55201C48.6128 9.55201 48.6501 9.56801 48.6821 9.60001L49.6741 10.416C49.7701 10.4907 49.7861 10.576 49.7221 10.672C49.3915 11.1413 48.9488 11.504 48.3941 11.76C47.8501 12.016 47.2421 12.144 46.5701 12.144C45.7381 12.144 45.0288 11.9573 44.4421 11.584C43.8661 11.2107 43.4448 10.688 43.1781 10.016C42.9328 9.44001 42.8101 8.64001 42.8101 7.61601C42.8101 6.99734 42.8741 6.49601 43.0021 6.11201C43.2155 5.36534 43.6155 4.77867 44.2021 4.35201C44.7995 3.91467 45.5141 3.69601 46.3461 3.69601C48.4475 3.69601 49.6315 4.79467 49.8981 6.99201ZM46.3461 5.29601C45.9515 5.29601 45.6208 5.39734 45.3541 5.60001C45.0981 5.79201 44.9168 6.06401 44.8101 6.41601C44.7461 6.59734 44.7035 6.83201 44.6821 7.12001C44.6608 7.17334 44.6821 7.20001 44.7461 7.20001H47.9941C48.0475 7.20001 48.0741 7.17334 48.0741 7.12001C48.0528 6.85334 48.0208 6.65067 47.9781 6.51201C47.8821 6.12801 47.6901 5.82934 47.4021 5.61601C47.1248 5.40267 46.7728 5.29601 46.3461 5.29601Z" fill="black"/>
<path d="M58.0744 6.99201C58.117 7.25867 58.1384 7.55734 58.1384 7.88801L58.1224 8.38401C58.1224 8.51201 58.0584 8.57601 57.9304 8.57601H52.9224C52.869 8.57601 52.8424 8.60267 52.8424 8.65601C52.8744 9.00801 52.9224 9.24801 52.9864 9.37601C53.2424 10.144 53.8664 10.5333 54.8584 10.544C55.5837 10.544 56.1597 10.2453 56.5864 9.64801C56.629 9.58401 56.6824 9.55201 56.7464 9.55201C56.789 9.55201 56.8264 9.56801 56.8584 9.60001L57.8504 10.416C57.9464 10.4907 57.9624 10.576 57.8984 10.672C57.5677 11.1413 57.125 11.504 56.5704 11.76C56.0264 12.016 55.4184 12.144 54.7464 12.144C53.9144 12.144 53.205 11.9573 52.6184 11.584C52.0424 11.2107 51.621 10.688 51.3544 10.016C51.109 9.44001 50.9864 8.64001 50.9864 7.61601C50.9864 6.99734 51.0504 6.49601 51.1784 6.11201C51.3917 5.36534 51.7917 4.77867 52.3784 4.35201C52.9757 3.91467 53.6904 3.69601 54.5224 3.69601C56.6237 3.69601 57.8077 4.79467 58.0744 6.99201ZM54.5224 5.29601C54.1277 5.29601 53.797 5.39734 53.5304 5.60001C53.2744 5.79201 53.093 6.06401 52.9864 6.41601C52.9224 6.59734 52.8797 6.83201 52.8584 7.12001C52.837 7.17334 52.8584 7.20001 52.9224 7.20001H56.1704C56.2237 7.20001 56.2504 7.17334 56.2504 7.12001C56.229 6.85334 56.197 6.65067 56.1544 6.51201C56.0584 6.12801 55.8664 5.82934 55.5784 5.61601C55.301 5.40267 54.949 5.29601 54.5224 5.29601Z" fill="black"/>
</svg>
